<svg width="24" height="24" viewBox="0 0 24 24" fill="none" xmlns="http://www.w3.org/2000/svg">
<g clip-path="url(#clip0_1029_222)">
<path d="M11.48 0.192022C11.6249 0.0680786 11.8093 -3.05176e-05 12 -3.05176e-05C12.1907 -3.05176e-05 12.3751 0.0680786 12.52 0.192022L24 10.032V21.6C24 22.2365 23.7471 22.847 23.2971 23.2971C22.847 23.7472 22.2365 24 21.6 24H15.2C14.9878 24 14.7843 23.9157 14.6343 23.7657C14.4843 23.6157 14.4 23.4122 14.4 23.2V18.4C14.4 17.7635 14.1471 17.1531 13.6971 16.703C13.247 16.2529 12.6365 16 12 16C11.3635 16 10.753 16.2529 10.3029 16.703C9.85286 17.1531 9.6 17.7635 9.6 18.4V23.2C9.6 23.4122 9.51571 23.6157 9.36569 23.7657C9.21566 23.9157 9.01217 24 8.8 24H2.4C1.76348 24 1.15303 23.7472 0.702943 23.2971C0.252856 22.847 -3.57628e-07 22.2365 -3.57628e-07 21.6V10.032L11.48 0.192022Z" fill="#219EBC"/>
</g>
<defs>
<clipPath id="clip0_1029_222">
<rect width="24" height="24" fill="white" transform="matrix(-1 0 0 1 24 0)"/>
</clipPath>
</defs>
</svg>
