<svg width="32" height="32" viewBox="0 0 32 32" fill="none" xmlns="http://www.w3.org/2000/svg">
<g clip-path="url(#clip0_994_225)">
<path d="M1 2C0.734784 2 0.48043 2.10536 0.292893 2.29289C0.105357 2.48043 0 2.73478 0 3C0 3.26522 0.105357 3.51957 0.292893 3.70711C0.48043 3.89464 0.734784 4 1 4H3.22L4.022 7.214L7.018 23.184C7.0609 23.4132 7.18251 23.6201 7.36182 23.7691C7.54113 23.9181 7.76686 23.9998 8 24H10C8.93913 24 7.92172 24.4214 7.17157 25.1716C6.42143 25.9217 6 26.9391 6 28C6 29.0609 6.42143 30.0783 7.17157 30.8284C7.92172 31.5786 8.93913 32 10 32C11.0609 32 12.0783 31.5786 12.8284 30.8284C13.5786 30.0783 14 29.0609 14 28C14 26.9391 13.5786 25.9217 12.8284 25.1716C12.0783 24.4214 11.0609 24 10 24H24C22.9391 24 21.9217 24.4214 21.1716 25.1716C20.4214 25.9217 20 26.9391 20 28C20 29.0609 20.4214 30.0783 21.1716 30.8284C21.9217 31.5786 22.9391 32 24 32C25.0609 32 26.0783 31.5786 26.8284 30.8284C27.5786 30.0783 28 29.0609 28 28C28 26.9391 27.5786 25.9217 26.8284 25.1716C26.0783 24.4214 25.0609 24 24 24H26C26.2331 23.9998 26.4589 23.9181 26.6382 23.7691C26.8175 23.6201 26.9391 23.4132 26.982 23.184L29.982 7.184C30.009 7.03967 30.0039 6.89117 29.9671 6.74904C29.9302 6.6069 29.8625 6.47463 29.7688 6.36161C29.675 6.24859 29.5576 6.1576 29.4247 6.0951C29.2918 6.03261 29.1468 6.00014 29 6H5.78L4.97 2.758C4.91602 2.54157 4.79122 2.3494 4.61546 2.21205C4.4397 2.0747 4.22306 2.00006 4 2H1ZM12 28C12 28.5304 11.7893 29.0391 11.4142 29.4142C11.0391 29.7893 10.5304 30 10 30C9.46957 30 8.96086 29.7893 8.58579 29.4142C8.21071 29.0391 8 28.5304 8 28C8 27.4696 8.21071 26.9609 8.58579 26.5858C8.96086 26.2107 9.46957 26 10 26C10.5304 26 11.0391 26.2107 11.4142 26.5858C11.7893 26.9609 12 27.4696 12 28ZM26 28C26 28.5304 25.7893 29.0391 25.4142 29.4142C25.0391 29.7893 24.5304 30 24 30C23.4696 30 22.9609 29.7893 22.5858 29.4142C22.2107 29.0391 22 28.5304 22 28C22 27.4696 22.2107 26.9609 22.5858 26.5858C22.9609 26.2107 23.4696 26 24 26C24.5304 26 25.0391 26.2107 25.4142 26.5858C25.7893 26.9609 26 27.4696 26 28ZM22.708 12.708L16.708 18.708C16.6151 18.8011 16.5048 18.875 16.3833 18.9254C16.2618 18.9758 16.1315 19.0018 16 19.0018C15.8685 19.0018 15.7382 18.9758 15.6167 18.9254C15.4952 18.875 15.3849 18.8011 15.292 18.708L12.292 15.708C12.199 15.615 12.1253 15.5046 12.075 15.3832C12.0246 15.2617 11.9987 15.1315 11.9987 15C11.9987 14.8685 12.0246 14.7383 12.075 14.6168C12.1253 14.4954 12.199 14.385 12.292 14.292C12.385 14.199 12.4954 14.1253 12.6168 14.075C12.7383 14.0246 12.8685 13.9987 13 13.9987C13.1315 13.9987 13.2617 14.0246 13.3832 14.075C13.5046 14.1253 13.615 14.199 13.708 14.292L16 16.586L21.292 11.292C21.385 11.199 21.4954 11.1253 21.6168 11.075C21.7383 11.0246 21.8685 10.9987 22 10.9987C22.1315 10.9987 22.2617 11.0246 22.3832 11.075C22.5046 11.1253 22.615 11.199 22.708 11.292C22.801 11.385 22.8747 11.4954 22.925 11.6168C22.9754 11.7383 23.0013 11.8685 23.0013 12C23.0013 12.1315 22.9754 12.2617 22.925 12.3832C22.8747 12.5046 22.801 12.615 22.708 12.708Z" fill="#219EBC"/>
</g>
<defs>
<clipPath id="clip0_994_225">
<rect width="32" height="32" fill="white"/>
</clipPath>
</defs>
</svg>
