<svg width="24" height="24" viewBox="0 0 24 24" fill="none" xmlns="http://www.w3.org/2000/svg">
<path d="M0 0.8C0 0.587827 0.0842855 0.384344 0.234315 0.234315C0.384344 0.0842854 0.587827 0 0.8 0H3.2C3.37845 4.92984e-05 3.55176 0.0597611 3.69237 0.16964C3.83298 0.279518 3.93282 0.433254 3.976 0.6064L4.624 3.2H23.2C23.3175 3.20011 23.4335 3.22608 23.5398 3.27608C23.6461 3.32608 23.74 3.39887 23.815 3.48929C23.89 3.5797 23.9442 3.68552 23.9737 3.79923C24.0031 3.91294 24.0072 4.03174 23.9856 4.1472L21.5856 16.9472C21.5513 17.1305 21.454 17.2961 21.3105 17.4153C21.1671 17.5345 20.9865 17.5998 20.8 17.6H6.4C6.21349 17.5998 6.0329 17.5345 5.88946 17.4153C5.74601 17.2961 5.64872 17.1305 5.6144 16.9472L3.216 4.1712L2.576 1.6H0.8C0.587827 1.6 0.384344 1.51571 0.234315 1.36569C0.0842855 1.21566 0 1.01217 0 0.8ZM4.9632 4.8L7.064 16H20.136L22.2368 4.8H4.9632ZM8 17.6C7.15131 17.6 6.33738 17.9371 5.73726 18.5373C5.13714 19.1374 4.8 19.9513 4.8 20.8C4.8 21.6487 5.13714 22.4626 5.73726 23.0627C6.33738 23.6629 7.15131 24 8 24C8.84869 24 9.66263 23.6629 10.2627 23.0627C10.8629 22.4626 11.2 21.6487 11.2 20.8C11.2 19.9513 10.8629 19.1374 10.2627 18.5373C9.66263 17.9371 8.84869 17.6 8 17.6ZM19.2 17.6C18.3513 17.6 17.5374 17.9371 16.9373 18.5373C16.3371 19.1374 16 19.9513 16 20.8C16 21.6487 16.3371 22.4626 16.9373 23.0627C17.5374 23.6629 18.3513 24 19.2 24C20.0487 24 20.8626 23.6629 21.4627 23.0627C22.0629 22.4626 22.4 21.6487 22.4 20.8C22.4 19.9513 22.0629 19.1374 21.4627 18.5373C20.8626 17.9371 20.0487 17.6 19.2 17.6ZM8 19.2C8.42435 19.2 8.83131 19.3686 9.13137 19.6686C9.43143 19.9687 9.6 20.3757 9.6 20.8C9.6 21.2243 9.43143 21.6313 9.13137 21.9314C8.83131 22.2314 8.42435 22.4 8 22.4C7.57565 22.4 7.16869 22.2314 6.86863 21.9314C6.56857 21.6313 6.4 21.2243 6.4 20.8C6.4 20.3757 6.56857 19.9687 6.86863 19.6686C7.16869 19.3686 7.57565 19.2 8 19.2ZM19.2 19.2C19.6243 19.2 20.0313 19.3686 20.3314 19.6686C20.6314 19.9687 20.8 20.3757 20.8 20.8C20.8 21.2243 20.6314 21.6313 20.3314 21.9314C20.0313 22.2314 19.6243 22.4 19.2 22.4C18.7757 22.4 18.3687 22.2314 18.0686 21.9314C17.7686 21.6313 17.6 21.2243 17.6 20.8C17.6 20.3757 17.7686 19.9687 18.0686 19.6686C18.3687 19.3686 18.7757 19.2 19.2 19.2V19.2Z" fill="#E2E2E2"/>
</svg>
