<svg width="32" height="32" viewBox="0 0 32 32" fill="none" xmlns="http://www.w3.org/2000/svg">
<g clip-path="url(#clip0_994_221)">
<path d="M23.708 11.708C23.8958 11.5202 24.0013 11.2656 24.0013 11C24.0013 10.7345 23.8958 10.4798 23.708 10.292C23.5202 10.1042 23.2656 9.99875 23 9.99875C22.7345 9.99875 22.4798 10.1042 22.292 10.292L17 15.586L14.708 13.292C14.615 13.199 14.5047 13.1253 14.3832 13.075C14.2617 13.0246 14.1315 12.9987 14 12.9987C13.8685 12.9987 13.7383 13.0246 13.6168 13.075C13.4954 13.1253 13.385 13.199 13.292 13.292C13.199 13.385 13.1253 13.4954 13.075 13.6168C13.0246 13.7383 12.9987 13.8685 12.9987 14C12.9987 14.1315 13.0246 14.2617 13.075 14.3832C13.1253 14.5047 13.199 14.615 13.292 14.708L16.292 17.708C16.3849 17.8011 16.4953 17.875 16.6167 17.9254C16.7382 17.9759 16.8685 18.0018 17 18.0018C17.1315 18.0018 17.2618 17.9759 17.3833 17.9254C17.5048 17.875 17.6151 17.8011 17.708 17.708L23.708 11.708Z" fill="#E2E2E2"/>
<path d="M2 1C1.73478 1 1.48043 1.10536 1.29289 1.29289C1.10536 1.48043 1 1.73478 1 2C1 2.26522 1.10536 2.51957 1.29289 2.70711C1.48043 2.89464 1.73478 3 2 3H4.22L5.022 6.214L8.018 22.184C8.0609 22.4132 8.18251 22.6201 8.36182 22.7691C8.54113 22.9181 8.76686 22.9998 9 23H11C9.93913 23 8.92172 23.4214 8.17157 24.1716C7.42143 24.9217 7 25.9391 7 27C7 28.0609 7.42143 29.0783 8.17157 29.8284C8.92172 30.5786 9.93913 31 11 31C12.0609 31 13.0783 30.5786 13.8284 29.8284C14.5786 29.0783 15 28.0609 15 27C15 25.9391 14.5786 24.9217 13.8284 24.1716C13.0783 23.4214 12.0609 23 11 23H25C23.9391 23 22.9217 23.4214 22.1716 24.1716C21.4214 24.9217 21 25.9391 21 27C21 28.0609 21.4214 29.0783 22.1716 29.8284C22.9217 30.5786 23.9391 31 25 31C26.0609 31 27.0783 30.5786 27.8284 29.8284C28.5786 29.0783 29 28.0609 29 27C29 25.9391 28.5786 24.9217 27.8284 24.1716C27.0783 23.4214 26.0609 23 25 23H27C27.2331 22.9998 27.4589 22.9181 27.6382 22.7691C27.8175 22.6201 27.9391 22.4132 27.982 22.184L30.982 6.184C31.009 6.03967 31.0039 5.89117 30.9671 5.74904C30.9302 5.6069 30.8625 5.47463 30.7688 5.36161C30.675 5.24859 30.5576 5.1576 30.4247 5.0951C30.2918 5.03261 30.1468 5.00014 30 5H6.78L5.97 1.758C5.91602 1.54157 5.79122 1.3494 5.61546 1.21205C5.4397 1.0747 5.22306 1.00006 5 1H2ZM9.83 21L7.204 7H28.796L26.17 21H9.83ZM13 27C13 27.5304 12.7893 28.0391 12.4142 28.4142C12.0391 28.7893 11.5304 29 11 29C10.4696 29 9.96086 28.7893 9.58579 28.4142C9.21071 28.0391 9 27.5304 9 27C9 26.4696 9.21071 25.9609 9.58579 25.5858C9.96086 25.2107 10.4696 25 11 25C11.5304 25 12.0391 25.2107 12.4142 25.5858C12.7893 25.9609 13 26.4696 13 27ZM27 27C27 27.5304 26.7893 28.0391 26.4142 28.4142C26.0391 28.7893 25.5304 29 25 29C24.4696 29 23.9609 28.7893 23.5858 28.4142C23.2107 28.0391 23 27.5304 23 27C23 26.4696 23.2107 25.9609 23.5858 25.5858C23.9609 25.2107 24.4696 25 25 25C25.5304 25 26.0391 25.2107 26.4142 25.5858C26.7893 25.9609 27 26.4696 27 27Z" fill="#E2E2E2"/>
</g>
<defs>
<clipPath id="clip0_994_221">
<rect width="32" height="32" fill="white"/>
</clipPath>
</defs>
</svg>
