<svg width="24" height="24" viewBox="0 0 24 24" fill="none" xmlns="http://www.w3.org/2000/svg">
<g clip-path="url(#clip0_1029_216)">
<path d="M0.8 0C0.587827 0 0.384344 0.0842854 0.234315 0.234315C0.0842855 0.384344 0 0.587827 0 0.8C0 1.01217 0.0842855 1.21566 0.234315 1.36569C0.384344 1.51571 0.587827 1.6 0.8 1.6H2.576L3.2176 4.1712L5.6144 16.9472C5.64872 17.1305 5.74601 17.2961 5.88946 17.4153C6.0329 17.5345 6.21349 17.5998 6.4 17.6H8C7.15131 17.6 6.33738 17.9371 5.73726 18.5373C5.13714 19.1374 4.8 19.9513 4.8 20.8C4.8 21.6487 5.13714 22.4626 5.73726 23.0627C6.33738 23.6629 7.15131 24 8 24C8.84869 24 9.66263 23.6629 10.2627 23.0627C10.8629 22.4626 11.2 21.6487 11.2 20.8C11.2 19.9513 10.8629 19.1374 10.2627 18.5373C9.66263 17.9371 8.84869 17.6 8 17.6H19.2C18.3513 17.6 17.5374 17.9371 16.9373 18.5373C16.3371 19.1374 16 19.9513 16 20.8C16 21.6487 16.3371 22.4626 16.9373 23.0627C17.5374 23.6629 18.3513 24 19.2 24C20.0487 24 20.8626 23.6629 21.4627 23.0627C22.0629 22.4626 22.4 21.6487 22.4 20.8C22.4 19.9513 22.0629 19.1374 21.4627 18.5373C20.8626 17.9371 20.0487 17.6 19.2 17.6H20.8C20.9865 17.5998 21.1671 17.5345 21.3105 17.4153C21.454 17.2961 21.5513 17.1305 21.5856 16.9472L23.9856 4.1472C24.0072 4.03174 24.0031 3.91294 23.9737 3.79923C23.9442 3.68552 23.89 3.5797 23.815 3.48929C23.74 3.39887 23.6461 3.32608 23.5398 3.27608C23.4335 3.22608 23.3175 3.20011 23.2 3.2H4.624L3.976 0.6064C3.93282 0.433254 3.83298 0.279518 3.69237 0.16964C3.55176 0.0597611 3.37845 4.92984e-05 3.2 0H0.8ZM9.6 20.8C9.6 21.2243 9.43143 21.6313 9.13137 21.9314C8.83131 22.2314 8.42435 22.4 8 22.4C7.57565 22.4 7.16869 22.2314 6.86863 21.9314C6.56857 21.6313 6.4 21.2243 6.4 20.8C6.4 20.3757 6.56857 19.9687 6.86863 19.6686C7.16869 19.3686 7.57565 19.2 8 19.2C8.42435 19.2 8.83131 19.3686 9.13137 19.6686C9.43143 19.9687 9.6 20.3757 9.6 20.8V20.8ZM20.8 20.8C20.8 21.2243 20.6314 21.6313 20.3314 21.9314C20.0313 22.2314 19.6243 22.4 19.2 22.4C18.7757 22.4 18.3687 22.2314 18.0686 21.9314C17.7686 21.6313 17.6 21.2243 17.6 20.8C17.6 20.3757 17.7686 19.9687 18.0686 19.6686C18.3687 19.3686 18.7757 19.2 19.2 19.2C19.6243 19.2 20.0313 19.3686 20.3314 19.6686C20.6314 19.9687 20.8 20.3757 20.8 20.8V20.8ZM18.1664 8.5664L13.3664 13.3664C13.2921 13.4409 13.2038 13.5 13.1066 13.5403C13.0094 13.5807 12.9052 13.6014 12.8 13.6014C12.6948 13.6014 12.5906 13.5807 12.4934 13.5403C12.3962 13.5 12.3079 13.4409 12.2336 13.3664L9.8336 10.9664C9.75922 10.892 9.70022 10.8037 9.65996 10.7065C9.61971 10.6094 9.59899 10.5052 9.59899 10.4C9.59899 10.2948 9.61971 10.1906 9.65996 10.0935C9.70022 9.99628 9.75922 9.90798 9.8336 9.8336C9.90798 9.75922 9.99628 9.70022 10.0935 9.65996C10.1907 9.61971 10.2948 9.59899 10.4 9.59899C10.5052 9.59899 10.6094 9.61971 10.7065 9.65996C10.8037 9.70022 10.892 9.75922 10.9664 9.8336L12.8 11.6688L17.0336 7.4336C17.108 7.35922 17.1963 7.30022 17.2935 7.25996C17.3907 7.21971 17.4948 7.19899 17.6 7.19899C17.7052 7.19899 17.8094 7.21971 17.9065 7.25996C18.0037 7.30022 18.092 7.35922 18.1664 7.4336C18.2408 7.50798 18.2998 7.59628 18.34 7.69347C18.3803 7.79065 18.401 7.89481 18.401 8C18.401 8.10519 18.3803 8.20935 18.34 8.30653C18.2998 8.40372 18.2408 8.49202 18.1664 8.5664V8.5664Z" fill="#219EBC"/>
</g>
<defs>
<clipPath id="clip0_1029_216">
<rect width="24" height="24" fill="white"/>
</clipPath>
</defs>
</svg>
