<svg width="24" height="24" viewBox="0 0 24 24" fill="none" xmlns="http://www.w3.org/2000/svg">
<path d="M23.872 23.5201C23.7938 23.6672 23.6794 23.7894 23.5406 23.8738C23.4018 23.9583 23.2439 24.0018 23.0836 23.9999H0.916448C0.756066 24.0018 0.598167 23.9583 0.459405 23.8738C0.320643 23.7894 0.206161 23.6672 0.128031 23.5201C0.0442887 23.3755 0 23.2096 0 23.0403C0 22.8711 0.0442887 22.7052 0.128031 22.5606C1.83368 19.4761 4.56385 17.1611 7.79511 16.0593C6.24629 15.0925 5.04269 13.6186 4.36922 11.8641C3.69575 10.1095 3.58965 8.17138 4.06724 6.3474C4.54482 4.52342 5.57966 2.91448 7.01278 1.76777C8.4459 0.62106 10.198 0 12 0C13.802 0 15.5541 0.62106 16.9872 1.76777C18.4203 2.91448 19.4552 4.52342 19.9328 6.3474C20.4103 8.17138 20.3043 10.1095 19.6308 11.8641C18.9573 13.6186 17.7537 15.0925 16.2049 16.0593C19.4362 17.1611 22.1663 19.4761 23.872 22.5606C23.9557 22.7052 24 22.8711 24 23.0403C24 23.2096 23.9557 23.3755 23.872 23.5201Z" fill="#219EBC"/>
</svg>
